<svg id="visual" viewBox="0 0 960 200" width="960" height="200" xmlns="http://www.w3.org/2000/svg" xmlns:xlink="http://www.w3.org/1999/xlink" version="1.1"><rect x="0" y="0" width="960" height="200" fill="#001220"></rect><path d="M0 99L16 99.8C32 100.7 64 102.3 96 100.3C128 98.3 160 92.7 192 90.8C224 89 256 91 288 91.5C320 92 352 91 384 91.7C416 92.3 448 94.7 480 97C512 99.3 544 101.7 576 96.2C608 90.7 640 77.3 672 76C704 74.7 736 85.3 768 92.2C800 99 832 102 864 97.8C896 93.7 928 82.3 944 76.7L960 71L960 201L944 201C928 201 896 201 864 201C832 201 800 201 768 201C736 201 704 201 672 201C640 201 608 201 576 201C544 201 512 201 480 201C448 201 416 201 384 201C352 201 320 201 288 201C256 201 224 201 192 201C160 201 128 201 96 201C64 201 32 201 16 201L0 201Z" fill="#009473"></path><path d="M0 90L16 89.2C32 88.3 64 86.7 96 90.8C128 95 160 105 192 104.5C224 104 256 93 288 91C320 89 352 96 384 102.5C416 109 448 115 480 114C512 113 544 105 576 102.7C608 100.3 640 103.7 672 107.5C704 111.3 736 115.7 768 112.3C800 109 832 98 864 94.3C896 90.7 928 94.3 944 96.2L960 98L960 201L944 201C928 201 896 201 864 201C832 201 800 201 768 201C736 201 704 201 672 201C640 201 608 201 576 201C544 201 512 201 480 201C448 201 416 201 384 201C352 201 320 201 288 201C256 201 224 201 192 201C160 201 128 201 96 201C64 201 32 201 16 201L0 201Z" fill="#678629"></path><path d="M0 133L16 133C32 133 64 133 96 131.7C128 130.3 160 127.7 192 127.2C224 126.7 256 128.3 288 127C320 125.7 352 121.3 384 118.8C416 116.3 448 115.7 480 116.8C512 118 544 121 576 123.8C608 126.7 640 129.3 672 129.2C704 129 736 126 768 120.8C800 115.7 832 108.3 864 105.8C896 103.3 928 105.7 944 106.8L960 108L960 201L944 201C928 201 896 201 864 201C832 201 800 201 768 201C736 201 704 201 672 201C640 201 608 201 576 201C544 201 512 201 480 201C448 201 416 201 384 201C352 201 320 201 288 201C256 201 224 201 192 201C160 201 128 201 96 201C64 201 32 201 16 201L0 201Z" fill="#a86601"></path><path d="M0 133L16 133.2C32 133.3 64 133.7 96 135.2C128 136.7 160 139.3 192 136C224 132.7 256 123.3 288 121.2C320 119 352 124 384 127.3C416 130.7 448 132.3 480 132.3C512 132.3 544 130.7 576 131.7C608 132.7 640 136.3 672 136.5C704 136.7 736 133.3 768 131.7C800 130 832 130 864 130.5C896 131 928 132 944 132.5L960 133L960 201L944 201C928 201 896 201 864 201C832 201 800 201 768 201C736 201 704 201 672 201C640 201 608 201 576 201C544 201 512 201 480 201C448 201 416 201 384 201C352 201 320 201 288 201C256 201 224 201 192 201C160 201 128 201 96 201C64 201 32 201 16 201L0 201Z" fill="#cd3939"></path><path d="M0 130L16 134.2C32 138.3 64 146.7 96 146.3C128 146 160 137 192 133.5C224 130 256 132 288 133.2C320 134.3 352 134.7 384 134.7C416 134.7 448 134.3 480 135.5C512 136.7 544 139.3 576 142.2C608 145 640 148 672 145.7C704 143.3 736 135.7 768 135.8C800 136 832 144 864 145.7C896 147.3 928 142.7 944 140.3L960 138L960 201L944 201C928 201 896 201 864 201C832 201 800 201 768 201C736 201 704 201 672 201C640 201 608 201 576 201C544 201 512 201 480 201C448 201 416 201 384 201C352 201 320 201 288 201C256 201 224 201 192 201C160 201 128 201 96 201C64 201 32 201 16 201L0 201Z" fill="#cd3939"></path><path d="M0 164L16 162C32 160 64 156 96 155.8C128 155.7 160 159.3 192 157.8C224 156.3 256 149.7 288 147.5C320 145.3 352 147.7 384 149.2C416 150.7 448 151.3 480 151C512 150.7 544 149.3 576 148.3C608 147.3 640 146.7 672 147.7C704 148.7 736 151.3 768 152C800 152.7 832 151.3 864 150.8C896 150.3 928 150.7 944 150.8L960 151L960 201L944 201C928 201 896 201 864 201C832 201 800 201 768 201C736 201 704 201 672 201C640 201 608 201 576 201C544 201 512 201 480 201C448 201 416 201 384 201C352 201 320 201 288 201C256 201 224 201 192 201C160 201 128 201 96 201C64 201 32 201 16 201L0 201Z" fill="#a86601"></path><path d="M0 170L16 168.7C32 167.3 64 164.7 96 166.2C128 167.7 160 173.3 192 174.3C224 175.3 256 171.7 288 168.2C320 164.7 352 161.3 384 160.7C416 160 448 162 480 162.7C512 163.3 544 162.7 576 161.8C608 161 640 160 672 162C704 164 736 169 768 170.3C800 171.7 832 169.3 864 170.2C896 171 928 175 944 177L960 179L960 201L944 201C928 201 896 201 864 201C832 201 800 201 768 201C736 201 704 201 672 201C640 201 608 201 576 201C544 201 512 201 480 201C448 201 416 201 384 201C352 201 320 201 288 201C256 201 224 201 192 201C160 201 128 201 96 201C64 201 32 201 16 201L0 201Z" fill="#678629"></path><path d="M0 175L16 177.5C32 180 64 185 96 185.8C128 186.7 160 183.3 192 182.3C224 181.3 256 182.7 288 184.2C320 185.7 352 187.3 384 186C416 184.7 448 180.3 480 178.7C512 177 544 178 576 179.7C608 181.3 640 183.7 672 183.3C704 183 736 180 768 179.5C800 179 832 181 864 181C896 181 928 179 944 178L960 177L960 201L944 201C928 201 896 201 864 201C832 201 800 201 768 201C736 201 704 201 672 201C640 201 608 201 576 201C544 201 512 201 480 201C448 201 416 201 384 201C352 201 320 201 288 201C256 201 224 201 192 201C160 201 128 201 96 201C64 201 32 201 16 201L0 201Z" fill="#009473"></path></svg>