<svg id="visual" viewBox="0 0 900 700" width="900" height="700" xmlns="http://www.w3.org/2000/svg" xmlns:xlink="http://www.w3.org/1999/xlink" version="1.1"><rect x="0" y="0" width="900" height="700" fill="#091a08"></rect><path d="M0 238L7.5 279.2C15 320.3 30 402.7 45 436C60 469.3 75 453.7 90 439.8C105 426 120 414 135 413.3C150 412.7 165 423.3 180 398.8C195 374.3 210 314.7 225 285.7C240 256.7 255 258.3 270 289.2C285 320 300 380 315 419.5C330 459 345 478 360 470.7C375 463.3 390 429.7 405 433.3C420 437 435 478 450 468.7C465 459.3 480 399.7 495 398.8C510 398 525 456 540 440.7C555 425.3 570 336.7 585 338C600 339.3 615 430.7 630 438C645 445.3 660 368.7 675 368.2C690 367.7 705 443.3 720 437.3C735 431.3 750 343.7 765 303.2C780 262.7 795 269.3 810 287.2C825 305 840 334 855 346.8C870 359.7 885 356.3 892.5 354.7L900 353" fill="none" stroke-linecap="round" stroke-linejoin="miter" stroke="#085115" stroke-width="20"></path></svg>