<svg id="visual" viewBox="0 0 960 200" width="960" height="200" xmlns="http://www.w3.org/2000/svg" xmlns:xlink="http://www.w3.org/1999/xlink" version="1.1"><rect x="0" y="0" width="960" height="200" fill="#001220"></rect><path d="M0 120L11.5 113.2C23 106.3 46 92.7 68.8 91.2C91.7 89.7 114.3 100.3 137.2 101.5C160 102.7 183 94.3 205.8 93.7C228.7 93 251.3 100 274.2 100.2C297 100.3 320 93.7 342.8 92.2C365.7 90.7 388.3 94.3 411.2 89.5C434 84.7 457 71.3 480 65.7C503 60 526 62 548.8 67.2C571.7 72.3 594.3 80.7 617.2 88.2C640 95.7 663 102.3 685.8 104.8C708.7 107.3 731.3 105.7 754.2 96.7C777 87.7 800 71.3 822.8 72.8C845.7 74.3 868.3 93.7 891.2 101.2C914 108.7 937 104.3 948.5 102.2L960 100L960 201L948.5 201C937 201 914 201 891.2 201C868.3 201 845.7 201 822.8 201C800 201 777 201 754.2 201C731.3 201 708.7 201 685.8 201C663 201 640 201 617.2 201C594.3 201 571.7 201 548.8 201C526 201 503 201 480 201C457 201 434 201 411.2 201C388.3 201 365.7 201 342.8 201C320 201 297 201 274.2 201C251.3 201 228.7 201 205.8 201C183 201 160 201 137.2 201C114.3 201 91.7 201 68.8 201C46 201 23 201 11.5 201L0 201Z" fill="#009473"></path><path d="M0 120L11.5 113.5C23 107 46 94 68.8 88.3C91.7 82.7 114.3 84.3 137.2 83.7C160 83 183 80 205.8 80.8C228.7 81.7 251.3 86.3 274.2 85.3C297 84.3 320 77.7 342.8 81.7C365.7 85.7 388.3 100.3 411.2 109C434 117.7 457 120.3 480 119.2C503 118 526 113 548.8 108.2C571.7 103.3 594.3 98.7 617.2 93C640 87.3 663 80.7 685.8 77.7C708.7 74.7 731.3 75.3 754.2 79.8C777 84.3 800 92.7 822.8 99.8C845.7 107 868.3 113 891.2 117.8C914 122.7 937 126.3 948.5 128.2L960 130L960 201L948.5 201C937 201 914 201 891.2 201C868.3 201 845.7 201 822.8 201C800 201 777 201 754.2 201C731.3 201 708.7 201 685.8 201C663 201 640 201 617.2 201C594.3 201 571.7 201 548.8 201C526 201 503 201 480 201C457 201 434 201 411.2 201C388.3 201 365.7 201 342.8 201C320 201 297 201 274.2 201C251.3 201 228.7 201 205.8 201C183 201 160 201 137.2 201C114.3 201 91.7 201 68.8 201C46 201 23 201 11.5 201L0 201Z" fill="#5da558"></path><path d="M0 128L11.5 124.7C23 121.3 46 114.7 68.8 114.3C91.7 114 114.3 120 137.2 122.5C160 125 183 124 205.8 121.8C228.7 119.7 251.3 116.3 274.2 116.8C297 117.3 320 121.7 342.8 119.8C365.7 118 388.3 110 411.2 109.3C434 108.7 457 115.3 480 115.7C503 116 526 110 548.8 111.2C571.7 112.3 594.3 120.7 617.2 122C640 123.3 663 117.7 685.8 110.8C708.7 104 731.3 96 754.2 92.7C777 89.3 800 90.7 822.8 90.5C845.7 90.3 868.3 88.7 891.2 92.8C914 97 937 107 948.5 112L960 117L960 201L948.5 201C937 201 914 201 891.2 201C868.3 201 845.7 201 822.8 201C800 201 777 201 754.2 201C731.3 201 708.7 201 685.8 201C663 201 640 201 617.2 201C594.3 201 571.7 201 548.8 201C526 201 503 201 480 201C457 201 434 201 411.2 201C388.3 201 365.7 201 342.8 201C320 201 297 201 274.2 201C251.3 201 228.7 201 205.8 201C183 201 160 201 137.2 201C114.3 201 91.7 201 68.8 201C46 201 23 201 11.5 201L0 201Z" fill="#a2af3c"></path><path d="M0 128L11.5 128.2C23 128.3 46 128.7 68.8 130.3C91.7 132 114.3 135 137.2 131.3C160 127.7 183 117.3 205.8 118C228.7 118.7 251.3 130.3 274.2 136C297 141.7 320 141.3 342.8 138.7C365.7 136 388.3 131 411.2 127.2C434 123.3 457 120.7 480 121.7C503 122.7 526 127.3 548.8 127.7C571.7 128 594.3 124 617.2 118.3C640 112.7 663 105.3 685.8 101.8C708.7 98.3 731.3 98.7 754.2 103.8C777 109 800 119 822.8 125.7C845.7 132.3 868.3 135.7 891.2 131.3C914 127 937 115 948.5 109L960 103L960 201L948.5 201C937 201 914 201 891.2 201C868.3 201 845.7 201 822.8 201C800 201 777 201 754.2 201C731.3 201 708.7 201 685.8 201C663 201 640 201 617.2 201C594.3 201 571.7 201 548.8 201C526 201 503 201 480 201C457 201 434 201 411.2 201C388.3 201 365.7 201 342.8 201C320 201 297 201 274.2 201C251.3 201 228.7 201 205.8 201C183 201 160 201 137.2 201C114.3 201 91.7 201 68.8 201C46 201 23 201 11.5 201L0 201Z" fill="#edb037"></path><path d="M0 138L11.5 138.3C23 138.7 46 139.3 68.8 138.7C91.7 138 114.3 136 137.2 131.5C160 127 183 120 205.8 123.8C228.7 127.7 251.3 142.3 274.2 147.3C297 152.3 320 147.7 342.8 141.5C365.7 135.3 388.3 127.7 411.2 128.3C434 129 457 138 480 142C503 146 526 145 548.8 140.5C571.7 136 594.3 128 617.2 123.3C640 118.7 663 117.3 685.8 120C708.7 122.7 731.3 129.3 754.2 129.7C777 130 800 124 822.8 127.3C845.7 130.7 868.3 143.3 891.2 149.5C914 155.7 937 155.3 948.5 155.2L960 155L960 201L948.5 201C937 201 914 201 891.2 201C868.3 201 845.7 201 822.8 201C800 201 777 201 754.2 201C731.3 201 708.7 201 685.8 201C663 201 640 201 617.2 201C594.3 201 571.7 201 548.8 201C526 201 503 201 480 201C457 201 434 201 411.2 201C388.3 201 365.7 201 342.8 201C320 201 297 201 274.2 201C251.3 201 228.7 201 205.8 201C183 201 160 201 137.2 201C114.3 201 91.7 201 68.8 201C46 201 23 201 11.5 201L0 201Z" fill="#fcaf3c"></path><path d="M0 166L11.5 161.5C23 157 46 148 68.8 142.3C91.7 136.7 114.3 134.3 137.2 133.3C160 132.3 183 132.7 205.8 134.8C228.7 137 251.3 141 274.2 141.5C297 142 320 139 342.8 137C365.7 135 388.3 134 411.2 136.5C434 139 457 145 480 149.2C503 153.3 526 155.7 548.8 155.8C571.7 156 594.3 154 617.2 150.3C640 146.7 663 141.3 685.8 140.5C708.7 139.7 731.3 143.3 754.2 144.7C777 146 800 145 822.8 143.3C845.7 141.7 868.3 139.3 891.2 141.2C914 143 937 149 948.5 152L960 155L960 201L948.5 201C937 201 914 201 891.2 201C868.3 201 845.7 201 822.8 201C800 201 777 201 754.2 201C731.3 201 708.7 201 685.8 201C663 201 640 201 617.2 201C594.3 201 571.7 201 548.8 201C526 201 503 201 480 201C457 201 434 201 411.2 201C388.3 201 365.7 201 342.8 201C320 201 297 201 274.2 201C251.3 201 228.7 201 205.8 201C183 201 160 201 137.2 201C114.3 201 91.7 201 68.8 201C46 201 23 201 11.5 201L0 201Z" fill="#edb037"></path><path d="M0 145L11.5 147.8C23 150.7 46 156.3 68.8 159.8C91.7 163.3 114.3 164.7 137.2 165.3C160 166 183 166 205.8 162.5C228.7 159 251.3 152 274.2 148.2C297 144.3 320 143.7 342.8 147.8C365.7 152 388.3 161 411.2 162.5C434 164 457 158 480 157.5C503 157 526 162 548.8 161.2C571.7 160.3 594.3 153.7 617.2 152.3C640 151 663 155 685.8 156.8C708.7 158.7 731.3 158.3 754.2 155.8C777 153.3 800 148.7 822.8 151.5C845.7 154.3 868.3 164.7 891.2 167.5C914 170.3 937 165.7 948.5 163.3L960 161L960 201L948.5 201C937 201 914 201 891.2 201C868.3 201 845.7 201 822.8 201C800 201 777 201 754.2 201C731.3 201 708.7 201 685.8 201C663 201 640 201 617.2 201C594.3 201 571.7 201 548.8 201C526 201 503 201 480 201C457 201 434 201 411.2 201C388.3 201 365.7 201 342.8 201C320 201 297 201 274.2 201C251.3 201 228.7 201 205.8 201C183 201 160 201 137.2 201C114.3 201 91.7 201 68.8 201C46 201 23 201 11.5 201L0 201Z" fill="#a2af3c"></path><path d="M0 171L11.5 169.2C23 167.3 46 163.7 68.8 162.7C91.7 161.7 114.3 163.3 137.2 163.7C160 164 183 163 205.8 165.2C228.7 167.3 251.3 172.7 274.2 175C297 177.3 320 176.7 342.8 175.2C365.7 173.7 388.3 171.3 411.2 169.7C434 168 457 167 480 166C503 165 526 164 548.8 165.3C571.7 166.7 594.3 170.3 617.2 171.8C640 173.3 663 172.7 685.8 170.2C708.7 167.7 731.3 163.3 754.2 163.8C777 164.3 800 169.7 822.8 171C845.7 172.3 868.3 169.7 891.2 171.3C914 173 937 179 948.5 182L960 185L960 201L948.5 201C937 201 914 201 891.2 201C868.3 201 845.7 201 822.8 201C800 201 777 201 754.2 201C731.3 201 708.7 201 685.8 201C663 201 640 201 617.2 201C594.3 201 571.7 201 548.8 201C526 201 503 201 480 201C457 201 434 201 411.2 201C388.3 201 365.7 201 342.8 201C320 201 297 201 274.2 201C251.3 201 228.7 201 205.8 201C183 201 160 201 137.2 201C114.3 201 91.7 201 68.8 201C46 201 23 201 11.5 201L0 201Z" fill="#5da558"></path><path d="M0 178L11.5 179.8C23 181.7 46 185.3 68.8 184.3C91.7 183.3 114.3 177.7 137.2 175.3C160 173 183 174 205.8 176.5C228.7 179 251.3 183 274.2 182.8C297 182.7 320 178.3 342.8 178C365.7 177.7 388.3 181.3 411.2 181.2C434 181 457 177 480 177.7C503 178.3 526 183.7 548.8 184.7C571.7 185.7 594.3 182.3 617.2 180C640 177.7 663 176.3 685.8 175.8C708.7 175.3 731.3 175.7 754.2 178.8C777 182 800 188 822.8 190.8C845.7 193.7 868.3 193.3 891.2 191.2C914 189 937 185 948.5 183L960 181L960 201L948.5 201C937 201 914 201 891.2 201C868.3 201 845.7 201 822.8 201C800 201 777 201 754.2 201C731.3 201 708.7 201 685.8 201C663 201 640 201 617.2 201C594.3 201 571.7 201 548.8 201C526 201 503 201 480 201C457 201 434 201 411.2 201C388.3 201 365.7 201 342.8 201C320 201 297 201 274.2 201C251.3 201 228.7 201 205.8 201C183 201 160 201 137.2 201C114.3 201 91.7 201 68.8 201C46 201 23 201 11.5 201L0 201Z" fill="#009473"></path></svg>