<svg id="visual" viewBox="0 0 960 200" width="960" height="200" xmlns="http://www.w3.org/2000/svg" xmlns:xlink="http://www.w3.org/1999/xlink" version="1.1"><rect x="0" y="0" width="960" height="200" fill="#001220"></rect><path d="M0 137L16 133.3C32 129.7 64 122.3 96 123.8C128 125.3 160 135.7 192 138C224 140.3 256 134.7 288 132.8C320 131 352 133 384 132.7C416 132.3 448 129.7 480 131C512 132.3 544 137.7 576 140.3C608 143 640 143 672 140.3C704 137.7 736 132.3 768 129.8C800 127.3 832 127.7 864 127.8C896 128 928 128 944 128L960 128L960 201L944 201C928 201 896 201 864 201C832 201 800 201 768 201C736 201 704 201 672 201C640 201 608 201 576 201C544 201 512 201 480 201C448 201 416 201 384 201C352 201 320 201 288 201C256 201 224 201 192 201C160 201 128 201 96 201C64 201 32 201 16 201L0 201Z" fill="#10a84c"></path><path d="M0 153L16 152.7C32 152.3 64 151.7 96 148C128 144.3 160 137.7 192 133.8C224 130 256 129 288 128C320 127 352 126 384 129.8C416 133.7 448 142.3 480 144.7C512 147 544 143 576 139C608 135 640 131 672 128.3C704 125.7 736 124.3 768 128.3C800 132.3 832 141.7 864 142.8C896 144 928 137 944 133.5L960 130L960 201L944 201C928 201 896 201 864 201C832 201 800 201 768 201C736 201 704 201 672 201C640 201 608 201 576 201C544 201 512 201 480 201C448 201 416 201 384 201C352 201 320 201 288 201C256 201 224 201 192 201C160 201 128 201 96 201C64 201 32 201 16 201L0 201Z" fill="#00977a"></path><path d="M0 147L16 147C32 147 64 147 96 144.5C128 142 160 137 192 140.2C224 143.3 256 154.7 288 157C320 159.3 352 152.7 384 149.2C416 145.7 448 145.3 480 146C512 146.7 544 148.3 576 149C608 149.7 640 149.3 672 151.8C704 154.3 736 159.7 768 159C800 158.3 832 151.7 864 150.5C896 149.3 928 153.7 944 155.8L960 158L960 201L944 201C928 201 896 201 864 201C832 201 800 201 768 201C736 201 704 201 672 201C640 201 608 201 576 201C544 201 512 201 480 201C448 201 416 201 384 201C352 201 320 201 288 201C256 201 224 201 192 201C160 201 128 201 96 201C64 201 32 201 16 201L0 201Z" fill="#00818f"></path><path d="M0 159L16 156.5C32 154 64 149 96 150.5C128 152 160 160 192 164C224 168 256 168 288 167.8C320 167.7 352 167.3 384 166C416 164.7 448 162.3 480 161.3C512 160.3 544 160.7 576 160.7C608 160.7 640 160.3 672 161.7C704 163 736 166 768 163.5C800 161 832 153 864 150.2C896 147.3 928 149.7 944 150.8L960 152L960 201L944 201C928 201 896 201 864 201C832 201 800 201 768 201C736 201 704 201 672 201C640 201 608 201 576 201C544 201 512 201 480 201C448 201 416 201 384 201C352 201 320 201 288 201C256 201 224 201 192 201C160 201 128 201 96 201C64 201 32 201 16 201L0 201Z" fill="#006885"></path><path d="M0 169L16 170C32 171 64 173 96 174.3C128 175.7 160 176.3 192 174.5C224 172.7 256 168.3 288 167.5C320 166.7 352 169.3 384 169.7C416 170 448 168 480 168.3C512 168.7 544 171.3 576 170.5C608 169.7 640 165.3 672 166.2C704 167 736 173 768 174.8C800 176.7 832 174.3 864 171.8C896 169.3 928 166.7 944 165.3L960 164L960 201L944 201C928 201 896 201 864 201C832 201 800 201 768 201C736 201 704 201 672 201C640 201 608 201 576 201C544 201 512 201 480 201C448 201 416 201 384 201C352 201 320 201 288 201C256 201 224 201 192 201C160 201 128 201 96 201C64 201 32 201 16 201L0 201Z" fill="#005074"></path><path d="M0 179L16 179.8C32 180.7 64 182.3 96 181.2C128 180 160 176 192 175.7C224 175.3 256 178.7 288 180C320 181.3 352 180.7 384 179.2C416 177.7 448 175.3 480 175.2C512 175 544 177 576 176C608 175 640 171 672 168.8C704 166.7 736 166.3 768 168.8C800 171.3 832 176.7 864 179C896 181.3 928 180.7 944 180.3L960 180L960 201L944 201C928 201 896 201 864 201C832 201 800 201 768 201C736 201 704 201 672 201C640 201 608 201 576 201C544 201 512 201 480 201C448 201 416 201 384 201C352 201 320 201 288 201C256 201 224 201 192 201C160 201 128 201 96 201C64 201 32 201 16 201L0 201Z" fill="#003861"></path><path d="M0 185L16 185.5C32 186 64 187 96 188.5C128 190 160 192 192 192.5C224 193 256 192 288 190.5C320 189 352 187 384 187.7C416 188.3 448 191.7 480 193C512 194.3 544 193.7 576 191.7C608 189.7 640 186.3 672 184.5C704 182.7 736 182.3 768 183.5C800 184.7 832 187.3 864 187.7C896 188 928 186 944 185L960 184L960 201L944 201C928 201 896 201 864 201C832 201 800 201 768 201C736 201 704 201 672 201C640 201 608 201 576 201C544 201 512 201 480 201C448 201 416 201 384 201C352 201 320 201 288 201C256 201 224 201 192 201C160 201 128 201 96 201C64 201 32 201 16 201L0 201Z" fill="#06214b"></path></svg>